<svg xmlns="http://www.w3.org/2000/svg" viewBox="0 0 109.5 124.5">
  <path fill="#95BF47" d="M95.8 25.8c-.1-.6-.6-1-1.1-1-.5 0-10.3-.8-10.3-.8s-6.8-6.8-7.5-7.5c-.7-.7-2.2-.5-2.7-.3 0 0-1.4.4-3.7 1.1-2.2-6.4-6.1-12.2-12.9-12.2h-.6C55 2.8 52.6 1.5 50.6 1.5c-15.8.1-23.4 19.8-25.8 29.9-6.2 1.9-10.6 3.3-11.1 3.5-3.5 1.1-3.6 1.2-4 4.4C9.3 42.1.5 109.9.5 109.9l76.1 13.1 41.2-10.2S96 26.4 95.8 25.8zM67.3 18.3l-5.7 1.8c0-1.1 0-2.3-.1-3.7-.1-2.7-.7-5.2-1.5-7.2 3.7.5 6.2 4.7 7.3 9.1zm-12-8c.9 2 1.5 4.8 1.6 8.7l-11.7 3.6c2.3-8.7 6.5-12.9 10.1-12.3zm-4.8-4.6c.7 0 1.3.2 1.9.7-4.8 2.3-10 8-12.2 19.4l-9.3 2.9C33.5 19.3 39.2 5.7 50.5 5.7z"/>
  <path fill="#5E8E3E" d="M94.7 24.8c-.5 0-10.3-.8-10.3-.8s-6.8-6.8-7.5-7.5c-.3-.3-.6-.4-1-.4l-5.4 110.8 41.2-10.2S96 26.4 95.8 25.8c-.1-.6-.6-1-1.1-1z"/>
  <path fill="#fff" d="M57 39.9l-4.9 14.5s-4.3-2.3-9.6-2.3c-7.8 0-8.2 4.9-8.2 6.1 0 6.7 17.4 9.3 17.4 25 0 12.4-7.8 20.3-18.4 20.3-12.7 0-19.2-7.9-19.2-7.9l3.4-11.2s6.7 5.7 12.3 5.7a5 5 0 005.1-5c0-8.7-14.3-9.1-14.3-23.6 0-12.1 8.7-23.9 26.3-23.9 6.8.1 10.1 2.3 10.1 2.3z"/>
</svg>
